<?xml version="1.0" encoding="utf-8"?>
<!-- Generator: Adobe Illustrator 25.1.0, SVG Export Plug-In . SVG Version: 6.00 Build 0)  -->
<svg version="1.1" id="Capa_1" xmlns="http://www.w3.org/2000/svg" xmlns:xlink="http://www.w3.org/1999/xlink" x="0px" y="0px"
	 viewBox="0 0 177.3 66.3" style="enable-background:new 0 0 177.3 66.3;" xml:space="preserve">
<style type="text/css">
	.st0{fill:#E82A2C;}
	.st1{fill:#FFFFFF;}
</style>
<path class="st0" d="M57.1,30.4c0-7.5,0-14,0-18c-0.2,0-3.9,0-4.1,0c-16.4,0-23.8,1.1-32.3-0.9C12.5,9.6,3,4.5,0,0.2
	c0,8.9,5.5,17,13.7,22.6c6.6,4.5,12.4,7.7,20.5,7.7c3.6,0,6.5,0,6.5,0c0,3-2.1,4.8-6.5,4.8c-0.7,0-3.1,0-3.1,0l42.8,31.1
	C57.1,52.4,57.1,40.6,57.1,30.4z"/>
<g>
	<polyline class="st1" points="111.2,12.6 111.2,38.1 88.7,60.6 84.4,56.3 75.9,47.8 66.1,38 66.1,12.4 88.7,35 111.2,12.5 
		111.2,12.6 111.2,12.5 	"/>
</g>
<path class="st0" d="M120.2,30.2c0-7.5,0-14,0-18c0.2,0,3.9,0,4.1,0c16.4,0,23.8,1.1,32.3-0.9c8.2-1.9,17.7-7,20.6-11.3
	c0,8.9-5.5,17-13.7,22.6c-6.6,4.5-12.4,7.7-20.5,7.7c-3.6,0-6.5,0-6.5,0c0,3,2.1,4.8,6.5,4.8c0.7,0,3.1,0,3.1,0l-42.8,31.1
	C120.1,52.2,120.2,40.5,120.2,30.2z"/>
</svg>
